<svg width="402" height="359" viewBox="0 0 402 359" fill="none" xmlns="http://www.w3.org/2000/svg">
<rect width="402" height="359" rx="8" fill="white"/>
<path fill-rule="evenodd" clip-rule="evenodd" d="M8 81.4755C8 79.8065 8.05564 78.1506 8.16517 76.5095L61.4802 129.565C61.3707 131.206 61.315 132.862 61.315 134.53V215.404C61.315 255.984 94.2112 288.88 134.791 288.88H219.914C220.463 288.88 221.01 288.874 221.555 288.862L274.742 341.79C273.204 341.886 271.654 341.935 270.092 341.935H81.4753C40.896 341.935 8 309.039 8 268.459V81.4755ZM262.047 275.607L314.041 327.347C331.964 313.949 343.567 292.559 343.567 268.459V81.4754C343.567 40.8961 310.671 8 270.092 8H81.4754C57.4309 8 36.084 19.5496 22.6796 37.4036L75.9944 90.459C89.3987 72.6048 110.746 61.0551 134.79 61.0551H219.914C260.493 61.0551 293.389 93.9511 293.389 134.53V215.404C293.389 240.308 280.999 262.319 262.047 275.607Z" fill="#FF442F"/>
<path d="M209.969 224.506L268.3 224.506L393.746 351.298L334.159 351.298L209.969 224.506Z" fill="#FF442F"/>
<path fill-rule="evenodd" clip-rule="evenodd" d="M8.14697 76.7915L11.4358 79.7648L8.16522 76.5101C8.15896 76.6038 8.15288 76.6976 8.14697 76.7915ZM261.118 328.232L274.448 341.808C274.546 341.802 274.644 341.796 274.742 341.79L261.118 328.232ZM314.04 327.348L262.047 275.607C280.999 262.319 293.389 240.308 293.389 215.404V134.53C293.389 93.9511 260.493 61.0551 219.914 61.0551H134.79C110.745 61.0551 89.3982 72.6048 75.9939 90.4591L22.6794 37.404C36.0838 19.5497 57.4308 8 81.4755 8H270.092C310.671 8 343.567 40.8961 343.567 81.4754V268.459C343.567 292.559 331.964 313.949 314.04 327.348Z" fill="black"/>
<path d="M209.968 224.506L268.3 224.506L393.745 351.298L334.159 351.298L209.968 224.506Z" fill="black"/>
</svg>
